<svg width="58" height="58" viewBox="0 0 58 58" fill="none" xmlns="http://www.w3.org/2000/svg">
<path d="M57.297 27.2086C56.8479 20.0087 53.6712 13.2508 48.4138 8.31117C43.1564 3.37154 36.2139 0.621704 29 0.621704C21.7861 0.621704 14.8436 3.37154 9.58621 8.31117C4.32885 13.2508 1.15212 20.0087 0.703003 27.2086C0.715548 27.8084 0.76531 28.4069 0.852003 29.0006C1.42939 33.817 3.25652 38.3986 6.152 42.2906C8.77908 45.8834 12.2182 48.8045 16.1888 50.8155C20.1594 52.8266 24.5491 53.8706 29 53.8626C22.7185 53.8586 16.6712 51.4777 12.073 47.1982C7.4748 42.9187 4.6664 37.0576 4.212 30.7926C4.14976 30.1974 4.12471 29.5989 4.137 29.0006C4.12471 28.4023 4.14976 27.8038 4.212 27.2086C4.66616 20.9433 7.47445 15.0821 12.0727 10.8024C16.6709 6.52265 22.7183 4.14159 29 4.13757C33.4508 4.1298 37.8404 5.17409 41.8108 7.1853C45.7813 9.1965 49.2201 12.1177 51.847 15.7106C54.7424 19.6026 56.5696 24.1842 57.147 29.0006C57.2305 29.5695 57.2802 30.1428 57.296 30.7176C57.296 30.1176 57.371 29.5226 57.371 28.9256C57.3817 28.3522 57.3577 27.7788 57.297 27.2086Z" fill="#E63E3A"/>
<path d="M0.703989 30.7914C1.15311 37.9912 4.32983 44.7492 9.58719 49.6888C14.8446 54.6284 21.7871 57.3782 29.001 57.3782C36.2148 57.3782 43.1574 54.6284 48.4148 49.6888C53.6721 44.7492 56.8489 37.9912 57.298 30.7914C57.2854 30.1915 57.2357 29.5931 57.149 28.9994C56.5716 24.183 54.7445 19.6013 51.849 15.7094C49.2218 12.1164 45.7826 9.19524 41.8118 7.1842C37.8409 5.17316 33.451 4.12917 29 4.13738C35.2817 4.1414 41.3291 6.52245 45.9273 10.8022C50.5255 15.0819 53.3338 20.9431 53.788 27.2084C53.8876 28.401 53.8876 29.5998 53.788 30.7924C53.3462 37.0621 50.5417 42.9306 45.9407 47.2127C41.3398 51.4948 35.2853 53.8713 29 53.8624C24.5494 53.87 20.16 52.8256 16.1897 50.8144C12.2195 48.8032 8.78076 45.8821 6.15399 42.2894C3.25855 38.3974 1.43142 33.8158 0.853989 28.9994C0.770509 28.4305 0.720755 27.8571 0.704989 27.2824C0.703989 27.8804 0.628989 28.4774 0.628989 29.0704C0.618291 29.6437 0.643339 30.2172 0.703989 30.7874" fill="#E63E3A"/>
<path d="M25.493 6.07874V13.9167H30.942C31.2569 13.9209 31.5694 13.862 31.8612 13.7434C32.1529 13.6248 32.4179 13.449 32.6406 13.2263C32.8633 13.0036 33.0391 12.7386 33.1577 12.4469C33.2763 12.1551 33.3352 11.8426 33.3311 11.5277C33.3264 11.2064 33.2581 10.8892 33.13 10.5945C33.002 10.2998 32.8167 10.0334 32.5851 9.81074C32.9037 9.39753 33.1103 8.90913 33.185 8.39273C33.1819 7.78 32.9371 7.19325 32.5038 6.75998C32.0705 6.3267 31.4838 6.08189 30.871 6.07874H25.493ZM27.284 7.72073H30.5681C30.7463 7.72073 30.9172 7.79154 31.0432 7.91756C31.1692 8.04359 31.2401 8.21451 31.2401 8.39273C31.2401 8.57096 31.1692 8.74189 31.0432 8.86791C30.9172 8.99394 30.7463 9.06474 30.5681 9.06474H27.2831L27.284 7.72073ZM27.284 10.7067H30.643C30.841 10.7067 31.0309 10.7854 31.1709 10.9254C31.3109 11.0654 31.3896 11.2552 31.3896 11.4532C31.3896 11.6512 31.3109 11.8411 31.1709 11.9811C31.0309 12.1211 30.841 12.1997 30.643 12.1997H27.2831L27.284 10.7067Z" fill="#E63E3A"/>
<path d="M28.104 15.4108L24.222 23.2488H26.238L26.838 21.9048H31.238L31.838 23.2488H33.853L29.891 15.4108H28.104ZM29.004 17.4268L30.348 20.2638H27.661L29.004 17.4268Z" fill="#E63E3A"/>
<path d="M31.687 24.9705H33.926L29.97 30.0465V32.8035H28.104V30.0415L24.148 24.9655H26.387L29.074 28.5485L31.687 24.9705Z" fill="#E63E3A"/>
<path d="M44.535 24.9675V32.8025H46.401V29.8165H47.819L50.059 32.8025H52.298L49.984 29.7425C50.5377 29.5701 51.0121 29.2066 51.3224 28.7167C51.6327 28.2268 51.7587 27.6426 51.6779 27.0684C51.5972 26.4942 51.3149 25.9674 50.8814 25.5822C50.448 25.1969 49.8918 24.9783 49.312 24.9655L44.535 24.9675ZM46.476 26.6095H49.163C49.3569 26.6222 49.5395 26.705 49.6768 26.8424C49.814 26.9799 49.8966 27.1626 49.909 27.3564C49.9085 27.5541 49.8297 27.7436 49.6899 27.8834C49.5502 28.0232 49.3607 28.1019 49.163 28.1024H46.476V26.6095Z" fill="#E63E3A"/>
<path d="M6.37701 24.9694V32.8034H11.826C12.1401 32.8069 12.4518 32.7475 12.7427 32.6289C13.0335 32.5103 13.2978 32.3347 13.5199 32.1125C13.742 31.8903 13.9174 31.626 14.0359 31.3351C14.1544 31.0442 14.2136 30.7325 14.21 30.4184C14.2054 30.0971 14.137 29.7799 14.009 29.4851C13.8809 29.1904 13.6957 28.924 13.464 28.7014C13.7826 28.2882 13.9893 27.7998 14.064 27.2834C14.0609 26.6706 13.8161 26.0839 13.3828 25.6506C12.9495 25.2173 12.3628 24.9725 11.75 24.9694H6.37701ZM8.16801 26.6114H11.452C11.6302 26.6114 11.8012 26.6822 11.9272 26.8082C12.0532 26.9342 12.124 27.1052 12.124 27.2834C12.124 27.4616 12.0532 27.6325 11.9272 27.7585C11.8012 27.8846 11.6302 27.9554 11.452 27.9554H8.16801V26.6114ZM8.16801 29.5974H11.527C11.7203 29.6045 11.9032 29.6862 12.0375 29.8254C12.1717 29.9646 12.2467 30.1505 12.2467 30.3439C12.2467 30.5373 12.1717 30.7231 12.0375 30.8623C11.9032 31.0016 11.7203 31.0833 11.527 31.0904H8.16801V29.5974Z" fill="#E63E3A"/>
<path d="M19.219 24.9694L15.337 32.8074H17.353L17.953 31.4634H22.353L22.953 32.8074H24.97L21.014 24.9694H19.219ZM20.119 26.9854L21.463 29.8224H18.77L20.119 26.9854Z" fill="#E63E3A"/>
<path d="M42.067 24.9705V26.6555H36.842V27.9745H41.918V29.6595H36.842V31.1245H42.067V32.8035H34.976V24.9655L42.067 24.9705Z" fill="#E63E3A"/>
<path d="M25.418 44.2322V52.0652H27.284V49.0792H28.702L30.941 52.0652H33.18L30.866 49.0042C31.4197 48.8319 31.894 48.4683 32.2043 47.9785C32.5147 47.4886 32.6407 46.9044 32.5599 46.3301C32.4791 45.7559 32.1968 45.2291 31.7634 44.8439C31.33 44.4586 30.7737 44.24 30.194 44.2272L25.418 44.2322ZM27.359 45.8742H30.046C30.2397 45.8869 30.4221 45.9695 30.5594 46.1068C30.6966 46.244 30.7793 46.4265 30.792 46.6202C30.7915 46.8179 30.7127 47.0073 30.5729 47.1471C30.4331 47.2869 30.2437 47.3657 30.046 47.3662H27.359V45.8742Z" fill="#E63E3A"/>
<path d="M32.584 34.5084V36.1934H27.359V37.5124H32.435V39.1974H27.359V40.6624H32.584V42.3474H25.492V34.5094L32.584 34.5084Z" fill="#E63E3A"/>
</svg>
