<svg width="92" height="46" viewBox="0 0 92 46" fill="none" xmlns="http://www.w3.org/2000/svg">
<path d="M0.633484 0.544922V45.4309H46.4855L91.3665 0.549922H0.633484V0.544922Z" fill="#E63E3A"/>
<path fill-rule="evenodd" clip-rule="evenodd" d="M54.8715 22.0206H52.9095V14.8206H54.8715C57.4905 14.8206 59.5715 15.6866 59.5715 18.3756C59.5715 21.1526 57.4865 22.0226 54.8715 22.0226M33.7545 27.1696C32.7804 27.1728 31.8137 27.0007 30.9005 26.6616L33.7265 17.7156H33.7865L36.5535 26.6856C35.655 27.0069 34.7087 27.1706 33.7545 27.1696ZM54.3465 8.96962H45.4445V30.2316L37.6585 8.96762H29.9445L23.2945 26.7456C22.5945 22.2646 17.9675 20.7136 14.3315 19.5566C11.9315 18.7826 9.38448 17.6446 9.40748 16.3846C9.42748 15.3546 10.7775 14.3996 13.4405 14.5416C15.7226 14.6046 17.9573 15.2085 19.9605 16.3036L23.0605 10.8916C19.912 9.36563 16.4679 8.5465 12.9695 8.49162H12.9445C11.3161 8.41621 9.6891 8.66679 8.15889 9.22866C6.62868 9.79054 5.22611 10.6524 4.03348 11.7636C2.67833 13.1645 1.91481 15.0336 1.90148 16.9826C1.82529 18.199 2.06732 19.4142 2.60372 20.5086C3.14012 21.603 3.95238 22.5387 4.96048 23.2236C6.81821 24.4687 8.863 25.4089 11.0175 26.0086C13.4925 26.7746 15.5175 27.4436 15.4895 28.8696C15.475 29.3902 15.2655 29.8863 14.9025 30.2596C14.5077 30.5937 14.0506 30.8461 13.5576 31.0023C13.0647 31.1585 12.5456 31.2154 12.0305 31.1696C9.40843 31.2701 6.82294 30.5297 4.65148 29.0566L1.90048 34.5426C4.97346 36.2954 8.44776 37.2232 11.9855 37.2356H12.4505C15.2259 37.2727 17.9307 36.361 20.1175 34.6516L20.4445 34.3656L19.5535 36.7656H27.6445L29.0035 32.6176C32.0564 33.6088 35.3425 33.6224 38.4035 32.6566L39.7105 36.7656H52.9105V28.1786H55.7905C62.7465 28.1786 66.8665 24.6246 66.8665 18.6596C66.8665 12.0206 62.8665 8.97562 54.3485 8.97562" fill="white"/>
<path d="M58.7165 40.8561V44.1961H59.2165V42.7461H59.7835L60.6975 44.1951H61.2645L60.2875 42.7461C60.408 42.7438 60.5269 42.7173 60.637 42.6682C60.7472 42.6192 60.8463 42.5484 60.9286 42.4603C61.0108 42.3722 61.0746 42.2684 61.1159 42.1551C61.1573 42.0419 61.1755 41.9215 61.1695 41.8011C61.1695 41.1431 60.7695 40.8561 59.9695 40.8561H58.7165ZM59.2165 41.2971H59.9095C60.2505 41.2971 60.6345 41.3521 60.6345 41.7701C60.6345 42.2911 60.2455 42.3371 59.8155 42.3371H59.2155L59.2165 41.2971ZM59.8465 39.6271C59.269 39.6243 58.7037 39.7932 58.2223 40.1123C57.741 40.4314 57.3653 40.8864 57.143 41.4194C56.9207 41.9525 56.8618 42.5395 56.9738 43.1061C57.0858 43.6727 57.3636 44.1932 57.772 44.6015C58.1804 45.0099 58.7009 45.2877 59.2675 45.3997C59.834 45.5117 60.4211 45.4528 60.9541 45.2305C61.4871 45.0082 61.9421 44.6326 62.2612 44.1512C62.5804 43.6699 62.7493 43.1046 62.7465 42.5271C62.7502 42.1455 62.6779 41.7671 62.5337 41.4138C62.3896 41.0605 62.1764 40.7395 61.9068 40.4695C61.6372 40.1996 61.3165 39.986 60.9634 39.8414C60.6104 39.6967 60.232 39.6238 59.8505 39.6271H59.8465ZM59.8465 40.1001C60.3276 40.0937 60.7998 40.2306 61.2029 40.4933C61.606 40.756 61.922 41.1326 62.1105 41.5753C62.299 42.018 62.3517 42.5067 62.2617 42.9794C62.1717 43.4521 61.9433 43.8874 61.6053 44.2299C61.2673 44.5724 60.8351 44.8066 60.3637 44.9028C59.8922 44.9991 59.4028 44.9529 58.9576 44.7703C58.5125 44.5876 58.1317 44.2768 57.8637 43.8771C57.5957 43.4775 57.4525 43.0072 57.4525 42.5261C57.4473 42.2084 57.5056 41.8929 57.6239 41.598C57.7422 41.3032 57.9182 41.0349 58.1415 40.809C58.3649 40.583 58.6311 40.4039 58.9245 40.2822C59.218 40.1605 59.5328 40.0986 59.8505 40.1001H59.8465Z" fill="#E63E3A"/>
</svg>
